<?xml version="1.0" standalone="no"?><!DOCTYPE svg PUBLIC "-//W3C//DTD SVG 1.1//EN" "http://www.w3.org/Graphics/SVG/1.1/DTD/svg11.dtd"><svg class="icon" width="200px" height="200.00px" viewBox="0 0 1024 1024" version="1.1" xmlns="http://www.w3.org/2000/svg"><path fill="#5384f8" d="M304.912 456.432l202.276 116.784v233.568l-202.28 116.784-202.276-116.784v-233.568l202.28-116.784z m410.116 0l202.276 116.784V614h-73.36l-128.92-74.432-128.92 74.432H584v233.92l-71.252-41.136v-233.568l202.28-116.784z m-410.12 83.136l-130.28 75.216v150.428l130.28 75.216 1.264-0.728-1.26-152.928 129.656-72.344-129.656-74.86zM510 100.432l202.28 116.784v233.568l-202.28 116.784-202.28-116.784V217.216l202.28-116.784z m0 83.136L379.72 258.784v150.428l130.28 75.216 1.26-0.728-1.26-152.928 129.656-72.344L510 183.568z"  /><path fill="#5384f8" d="M659.876 736.924s49.748 50.152 54.824 55.276c5.076 5.1 22.252 4.576 22.252 4.576s45.424-5.152 52-11.676c6.5-6.552 11-54.1 11-54.1s1.272-13.224-5.28-19.8c-6.52-6.552-55.096-55.152-55.096-55.152s-6.224-7 2.8-7.048c29.124-0.1 88.3 0.576 116.948 29.3l5.952 5.876c33.1 33.348 36.024 83.272 10.748 119.948l111.1 98.376c13.352 13.352 27.776 52.8 0 80.624-27.772 27.824-67.1 13.352-80.4-0.024 0 0-79.4-89.424-98.672-110.624-36.552 26.224-86.852 23.624-120.352-10l-5.9-5.9c-27.776-27.876-28.676-86.576-28.8-116.276-0.076-9.476 6.876-3.376 6.876-3.376z m278.548 230.424a32.892 32.892 0 0 0 32.952-32.92c0-18.18-14.752-32.928-32.952-32.928-18.2 0-32.9 14.776-32.9 32.924a32.868 32.868 0 0 0 32.9 32.924z"  /></svg>